<svg xmlns="http://www.w3.org/2000/svg" width="22.174" height="12.423" viewBox="0 0 22.174 12.423">
  <g id="icon-users" transform="translate(-5 -24.789)">
    <path id="Path_3" data-name="Path 3" d="M14.126,40.876a2.76,2.76,0,1,0-2.76-2.76A2.763,2.763,0,0,0,14.126,40.876Zm0-4.358a1.6,1.6,0,1,1-1.6,1.6A1.6,1.6,0,0,1,14.126,36.517Z" transform="translate(-4.798 -7.964)" fill="#fff"/>
    <path id="Path_4" data-name="Path 4" d="M6.161,64.114a2.153,2.153,0,0,1,2.15-2.15h2.033q.091,0,.181.008a.6.6,0,0,0,.458-.154.567.567,0,0,0,.185-.422.581.581,0,0,0-.516-.578c-.1-.01-.2-.015-.307-.015H8.312A3.315,3.315,0,0,0,5,64.114v.239H6.161Z" transform="translate(0 -27.14)" fill="#fff"/>
    <path id="Path_5" data-name="Path 5" d="M30.87,59.85h1.161V58.42a2.434,2.434,0,0,1,2.431-2.431H36.7a2.434,2.434,0,0,1,2.431,2.431v1.43H40.3V58.42A3.6,3.6,0,0,0,36.7,54.828H34.463A3.6,3.6,0,0,0,30.87,58.42v1.43Z" transform="translate(-19.496 -22.638)" fill="#fff"/>
    <path id="Path_6" data-name="Path 6" d="M73.113,60.8H71.08c-.057,0-.113,0-.17,0a.582.582,0,0,0-.376,1,.571.571,0,0,0,.428.155c.039,0,.079,0,.118,0h2.033a2.153,2.153,0,0,1,2.15,2.15v.239h1.161v-.239A3.316,3.316,0,0,0,73.113,60.8Z" transform="translate(-49.251 -27.14)" fill="#fff"/>
    <path id="Path_7" data-name="Path 7" d="M68.99,40.876a2.76,2.76,0,1,0-2.76-2.76A2.763,2.763,0,0,0,68.99,40.876Zm0-4.358a1.6,1.6,0,1,1-1.6,1.6A1.6,1.6,0,0,1,68.99,36.517Z" transform="translate(-46.144 -7.964)" fill="#fff"/>
    <path id="Path_8" data-name="Path 8" d="M39.381,31.732a3.472,3.472,0,1,0-3.472-3.472A3.476,3.476,0,0,0,39.381,31.732Zm0-5.782a2.31,2.31,0,1,1-2.311,2.311A2.313,2.313,0,0,1,39.381,25.95Z" transform="translate(-23.294)" fill="#fff"/>
  </g>
</svg>
