<svg xmlns="http://www.w3.org/2000/svg" width="20.717" height="18.525" viewBox="0 0 20.717 18.525">
  <g id="icon-home" transform="translate(-56.112 -104.774)">
    <g id="Group_2" data-name="Group 2" transform="translate(58.045 111.771)">
      <g id="Group_1" data-name="Group 1" transform="translate(0)">
        <path id="Path_1" data-name="Path 1" d="M156.205,413.676v8.509c0,.393-.009.788,0,1.183v.016l.909-.909h-5.475l.909.909v-4.5a6.6,6.6,0,0,0-.07-1.27,2.933,2.933,0,0,0-2.358-2.269,3.31,3.31,0,0,0-1.079,0,2.849,2.849,0,0,0-.822.284,2.906,2.906,0,0,0-1.206,1.181,3.037,3.037,0,0,0-.368,1.44v5.125l.909-.909h-5.475l.909.909v-8.509c0-.393.007-.788,0-1.184v-.016a.909.909,0,1,0-1.817,0v8.509c0,.393-.007.788,0,1.183v.016a.922.922,0,0,0,.909.909h5.475a.922.922,0,0,0,.909-.909v-4.6a6.1,6.1,0,0,1,.02-.815c-.011.079-.023.161-.032.241a2.116,2.116,0,0,1,.136-.5c-.03.073-.061.145-.091.218a2.14,2.14,0,0,1,.268-.463l-.143.184a2.194,2.194,0,0,1,.377-.377l-.184.143a2.142,2.142,0,0,1,.463-.268l-.218.091a2.115,2.115,0,0,1,.5-.136c-.079.011-.161.023-.241.032a2.145,2.145,0,0,1,.566,0c-.08-.011-.161-.023-.241-.032a2.115,2.115,0,0,1,.5.136l-.218-.091a2.142,2.142,0,0,1,.463.268l-.184-.143a2.193,2.193,0,0,1,.377.377l-.143-.184a2.142,2.142,0,0,1,.268.463c-.03-.073-.061-.145-.091-.218a2.117,2.117,0,0,1,.136.5c-.011-.079-.023-.161-.032-.241a5.428,5.428,0,0,1,.02.693v4.723a.922.922,0,0,0,.909.909h5.475a.922.922,0,0,0,.909-.909v-8.509c0-.393.007-.788,0-1.184v-.016a.919.919,0,0,0-.909-.909.932.932,0,0,0-.918.911Z" transform="translate(-141.167 -412.764)" fill="#fff"/>
      </g>
    </g>
    <g id="Group_4" data-name="Group 4" transform="translate(56.112 104.774)">
      <g id="Group_3" data-name="Group 3" transform="translate(0 0)">
        <path id="Path_2" data-name="Path 2" d="M57.661,114.95c.309-.286.618-.575.929-.861l2.228-2.065,2.685-2.49,2.322-2.153c.377-.35.761-.693,1.131-1.049l.016-.014H65.687l.956.861,2.294,2.065q1.383,1.244,2.765,2.49l2.392,2.153c.388.35.775.7,1.168,1.049l.016.014a.959.959,0,0,0,.643.266.933.933,0,0,0,.643-.266.91.91,0,0,0,0-1.286l-.956-.861-2.294-2.065q-1.383-1.244-2.765-2.49l-2.392-2.153c-.388-.35-.775-.7-1.168-1.049l-.016-.014a.932.932,0,0,0-1.286,0c-.309.286-.618.575-.929.861l-2.228,2.065-2.685,2.49L57.523,112.6c-.377.35-.761.693-1.131,1.049l-.016.014a.917.917,0,0,0,0,1.286.93.93,0,0,0,1.286,0Z" transform="translate(-56.112 -104.774)" fill="#fff"/>
      </g>
    </g>
  </g>
</svg>
