<svg xmlns="http://www.w3.org/2000/svg" xmlns:xlink="http://www.w3.org/1999/xlink" width="21" height="21" viewBox="0 0 21 21">
  <defs>
    <clipPath id="clip-path">
      <rect id="Rectangle_18" data-name="Rectangle 18" width="21" height="21" fill="#fff"/>
    </clipPath>
  </defs>
  <g id="icon-settings" clip-path="url(#clip-path)">
    <g id="Page-1">
      <g id="_9-copy-4" data-name="9-copy-4">
        <g id="settings-_1_" data-name="settings-(1)">
          <path id="Path" d="M10.776,6.015a4.758,4.758,0,1,0,1.437,9.294.82.82,0,0,0-.5-1.561,3.113,3.113,0,1,1,2.051-2.1.82.82,0,1,0,1.575.459,4.761,4.761,0,0,0-4.567-6.1Z" transform="translate(-0.276 -0.272)" fill="#fff"/>
          <path id="Shape" d="M18.539,7.629h-.413a.273.273,0,0,1-.25-.172l-.007-.018a.275.275,0,0,1,.054-.3l.292-.292a2.464,2.464,0,0,0,0-3.478l-.58-.58a2.461,2.461,0,0,0-3.478,0l-.292.292a.275.275,0,0,1-.3.054l-.016-.007a.274.274,0,0,1-.175-.251V2.461A2.464,2.464,0,0,0,10.91,0h-.82A2.464,2.464,0,0,0,7.629,2.461v.413a.274.274,0,0,1-.173.251l-.016.007a.275.275,0,0,1-.3-.054l-.292-.292a2.461,2.461,0,0,0-3.478,0l-.58.58a2.464,2.464,0,0,0,0,3.478l.292.292a.276.276,0,0,1,.052.3l-.005.012a.274.274,0,0,1-.251.175H2.461A2.464,2.464,0,0,0,0,10.09v.82a2.464,2.464,0,0,0,2.461,2.461h.413a.273.273,0,0,1,.25.172l.007.018a.275.275,0,0,1-.054.3l-.292.292a2.461,2.461,0,0,0,0,3.478l.58.58a2.461,2.461,0,0,0,3.478,0l.292-.292a.275.275,0,0,1,.3-.054l.016.007a.274.274,0,0,1,.175.251v.413A2.464,2.464,0,0,0,10.09,21h.82a2.464,2.464,0,0,0,2.461-2.461v-.413a.274.274,0,0,1,.173-.251l.016-.007a.275.275,0,0,1,.3.054l.292.292a2.461,2.461,0,0,0,3.478,0l.58-.58a2.461,2.461,0,0,0,0-3.478l-.292-.292a.275.275,0,0,1-.054-.3l.006-.015a.274.274,0,0,1,.251-.175h.413A2.464,2.464,0,0,0,21,10.91v-.82A2.464,2.464,0,0,0,18.539,7.629Zm.82,3.281a.822.822,0,0,1-.82.82h-.413a1.909,1.909,0,0,0-1.767,1.188l-.005.013a1.91,1.91,0,0,0,.409,2.09l.292.292a.82.82,0,0,1,0,1.16l-.58.58a.82.82,0,0,1-1.16,0l-.292-.292a1.911,1.911,0,0,0-2.093-.409l-.012,0a1.909,1.909,0,0,0-1.188,1.767v.413a.822.822,0,0,1-.82.82h-.82a.822.822,0,0,1-.82-.82v-.413a1.91,1.91,0,0,0-1.19-1.768l-.005,0a1.936,1.936,0,0,0-.744-.149,1.9,1.9,0,0,0-1.347.558l-.292.292a.82.82,0,0,1-1.16,0l-.583-.583a.82.82,0,0,1,0-1.16l.292-.292a1.91,1.91,0,0,0,.41-2.09l-.005-.013A1.91,1.91,0,0,0,2.874,11.73H2.461a.822.822,0,0,1-.82-.82v-.82a.821.821,0,0,1,.82-.82h.413A1.91,1.91,0,0,0,4.642,8.078l0-.007A1.91,1.91,0,0,0,4.237,5.98l-.292-.292a.821.821,0,0,1,0-1.16l.583-.583a.82.82,0,0,1,1.16,0l.292.292a1.91,1.91,0,0,0,2.091.409l.012,0A1.909,1.909,0,0,0,9.27,2.874V2.461a.821.821,0,0,1,.82-.82h.82a.822.822,0,0,1,.82.82v.413a1.91,1.91,0,0,0,1.19,1.767l.011,0a1.91,1.91,0,0,0,2.091-.409l.292-.292a.82.82,0,0,1,1.16,0l.58.58a.821.821,0,0,1,0,1.16l-.292.292a1.909,1.909,0,0,0-.41,2.088l.006.015A1.91,1.91,0,0,0,18.126,9.27h.413a.822.822,0,0,1,.82.82Z" fill="#fff"/>
        </g>
      </g>
    </g>
  </g>
</svg>
