<svg id="icon-list" xmlns="http://www.w3.org/2000/svg" width="21" height="20.75" viewBox="0 0 21 20.75">
  <rect id="Rectangle_12" data-name="Rectangle 12" width="15" height="1" transform="translate(6 0.75)" fill="#fff"/>
  <rect id="Rectangle_13" data-name="Rectangle 13" width="7" height="2" transform="translate(6 2.75)" fill="#fff"/>
  <rect id="Rectangle_14" data-name="Rectangle 14" width="15" height="1" transform="translate(6 8.75)" fill="#fff"/>
  <rect id="Rectangle_15" data-name="Rectangle 15" width="7" height="2" transform="translate(6 10.75)" fill="#fff"/>
  <rect id="Rectangle_16" data-name="Rectangle 16" width="15" height="2" transform="translate(6 15.75)" fill="#fff"/>
  <rect id="Rectangle_17" data-name="Rectangle 17" width="7" height="1" transform="translate(6 18.75)" fill="#fff"/>
  <path id="Path_9" data-name="Path 9" d="M2.594,5.188A2.594,2.594,0,1,1,5.188,2.594,2.594,2.594,0,0,1,2.594,5.188Zm0-3.891a1.3,1.3,0,1,0,1.3,1.3A1.3,1.3,0,0,0,2.594,1.3Z" fill="#fff"/>
  <path id="Path_10" data-name="Path 10" d="M2.594,17.188a2.594,2.594,0,1,1,2.594-2.594,2.594,2.594,0,0,1-2.594,2.594Zm0-3.891a1.3,1.3,0,1,0,1.3,1.3A1.3,1.3,0,0,0,2.594,13.3Z" transform="translate(0 -4.219)" fill="#fff"/>
  <path id="Path_11" data-name="Path 11" d="M2.594,29.188a2.594,2.594,0,1,1,2.594-2.594,2.594,2.594,0,0,1-2.594,2.594Zm0-3.891a1.3,1.3,0,1,0,1.3,1.3A1.3,1.3,0,0,0,2.594,25.3Z" transform="translate(0 -8.438)" fill="#fff"/>
</svg>
