<svg xmlns="http://www.w3.org/2000/svg" xmlns:xlink="http://www.w3.org/1999/xlink" width="20" height="20" viewBox="0 0 20 20">
  <defs>
    <clipPath id="clip-path">
      <rect id="Rectangle_20" data-name="Rectangle 20" width="20" height="20" transform="translate(0.25 0.25)" fill="#2196f3"/>
    </clipPath>
  </defs>
  <g id="icon-location" transform="translate(-0.25 -0.25)" clip-path="url(#clip-path)">
    <g id="Page-1" transform="translate(2.563)">
      <g id="_9-copy-5" data-name="9-copy-5">
        <g id="pin">
          <path id="Path" d="M11.2,14.947a.855.855,0,0,0,1.182-.251c1.985-3.056,2.99-5.414,2.99-7.008A7.688,7.688,0,1,0,0,7.688c0,3.972,6.312,11.644,7.032,12.506a.857.857,0,0,0,.655.307h0a.856.856,0,0,0,.655-.306c.039-.047.971-1.163,2.152-2.777a.855.855,0,1,0-1.379-1.009c-.555.758-1.058,1.409-1.431,1.881-2.126-2.677-5.976-8.054-5.976-10.6a5.979,5.979,0,1,1,11.959,0c0,1.223-.964,3.382-2.715,6.078a.855.855,0,0,0,.25,1.182Z" fill="#2196f3"/>
          <path id="Shape" d="M5,7.075A3.075,3.075,0,1,0,8.075,4,3.075,3.075,0,0,0,5,7.075Zm4.393,0A1.318,1.318,0,1,1,8.075,5.757,1.318,1.318,0,0,1,9.393,7.075Z" transform="translate(0.125 0.1)" fill="#2196f3"/>
        </g>
      </g>
    </g>
  </g>
</svg>
