<svg xmlns="http://www.w3.org/2000/svg" xmlns:xlink="http://www.w3.org/1999/xlink" width="20" height="19" viewBox="0 0 20 19">
  <defs>
    <clipPath id="clip-path">
      <rect id="Rectangle_19" data-name="Rectangle 19" width="20" height="19" transform="translate(0 0.5)"/>
    </clipPath>
  </defs>
  <g id="icon-user" transform="translate(0 -0.5)" clip-path="url(#clip-path)">
    <g id="user" transform="translate(0 -0.001)">
      <g id="Group_5" data-name="Group 5">
        <g id="Group_4" data-name="Group 4">
          <g id="Group_3" data-name="Group 3">
            <path id="Path_2" data-name="Path 2" d="M347.463,423.4a.762.762,0,0,0-1.492.311.8.8,0,0,1-.161.667.774.774,0,0,1-.609.289h-3.439a.762.762,0,0,0,0,1.523H345.2a2.316,2.316,0,0,0,2.262-2.791Z" transform="translate(-328.013 -406.692)"/>
            <path id="Path_3" data-name="Path 3" d="M10.523,10.388a8.38,8.38,0,0,1,6.2,3.688.762.762,0,1,0,1.265-.848,9.907,9.907,0,0,0-5.135-3.9,5.18,5.18,0,1,0-6.2,0,9.9,9.9,0,0,0-6.6,7.381A2.316,2.316,0,0,0,2.312,19.5H5.637a.762.762,0,0,0,0-1.523H2.312a.774.774,0,0,1-.609-.289.8.8,0,0,1-.161-.667A8.419,8.419,0,0,1,8.9,10.4L7.445,17.012a.762.762,0,0,0,.205.7l1.523,1.523a.762.762,0,0,0,1.077,0l1.523-1.523a.762.762,0,0,0,.205-.7ZM6.094,5.179A3.656,3.656,0,1,1,9.933,8.831H9.572A3.661,3.661,0,0,1,6.094,5.179ZM9.712,17.622l-.69-.69.69-3.14.69,3.14Z" transform="translate(0 0.002)"/>
          </g>
        </g>
      </g>
    </g>
  </g>
</svg>
